<svg width="12" height="12" viewBox="0 0 12 12" fill="none" xmlns="http://www.w3.org/2000/svg">
<path d="M11.8241 0.175948C11.5895 -0.0586493 11.2103 -0.0586493 10.9757 0.175948L6 5.15169L1.02432 0.175948C0.78973 -0.0586493 0.41054 -0.0586493 0.175946 0.175948C-0.0586485 0.410545 -0.0586485 0.78974 0.175946 1.02434L5.15162 6.00007L0.175946 10.9758C-0.0586485 11.2104 -0.0586485 11.5896 0.175946 11.8242C0.292943 11.9412 0.446539 12 0.600135 12C0.753731 12 0.907327 11.9412 1.02432 11.8242L6 6.84846L10.9757 11.8242C11.0927 11.9412 11.2463 12 11.3999 12C11.5535 12 11.7071 11.9412 11.8241 11.8242C12.0586 11.5896 12.0586 11.2104 11.8241 10.9758L6.84838 6.00007L11.8241 1.02434C12.0586 0.78974 12.0586 0.410545 11.8241 0.175948Z" fill="#4A90E2"/>
</svg>
